<svg xmlns="http://www.w3.org/2000/svg" xmlns:xlink="http://www.w3.org/1999/xlink" width="756" zoomAndPan="magnify" viewBox="0 0 567 850.499975" height="1134" preserveAspectRatio="xMidYMid meet" version="1.0"><defs><g/><clipPath id="de47d98bbe"><path d="M 0.984375 0.199219 L 350 0.199219 L 350 392.371094 L 0.984375 392.371094 Z M 0.984375 0.199219 " clip-rule="nonzero"/></clipPath><clipPath id="502ba1d3cb"><rect x="0" width="350" y="0" height="393"/></clipPath><clipPath id="e1b0e8ce75"><path d="M 198 94 L 241 94 L 241 134 L 198 134 Z M 198 94 " clip-rule="nonzero"/></clipPath><clipPath id="e843a579d3"><path d="M 180.597656 139.707031 L 219.050781 42.859375 L 277.578125 66.097656 L 239.125 162.945312 Z M 180.597656 139.707031 " clip-rule="nonzero"/></clipPath><clipPath id="3057300d42"><path d="M 180.597656 139.707031 L 219.050781 42.859375 L 277.578125 66.097656 L 239.125 162.945312 Z M 180.597656 139.707031 " clip-rule="nonzero"/></clipPath><clipPath id="a282dc3dd4"><path d="M 180.597656 139.707031 L 219.050781 42.859375 L 277.578125 66.097656 L 239.125 162.945312 Z M 180.597656 139.707031 " clip-rule="nonzero"/></clipPath><clipPath id="02f0c61cbf"><path d="M 209 107 L 233 107 L 233 129 L 209 129 Z M 209 107 " clip-rule="nonzero"/></clipPath><clipPath id="991a8ac0be"><path d="M 180.597656 139.707031 L 219.050781 42.859375 L 277.578125 66.097656 L 239.125 162.945312 Z M 180.597656 139.707031 " clip-rule="nonzero"/></clipPath><clipPath id="fb070bd252"><path d="M 180.597656 139.707031 L 219.050781 42.859375 L 277.578125 66.097656 L 239.125 162.945312 Z M 180.597656 139.707031 " clip-rule="nonzero"/></clipPath><clipPath id="0461812b29"><path d="M 180.597656 139.707031 L 219.050781 42.859375 L 277.578125 66.097656 L 239.125 162.945312 Z M 180.597656 139.707031 " clip-rule="nonzero"/></clipPath><clipPath id="08338ae180"><path d="M 208 106 L 233 106 L 233 129 L 208 129 Z M 208 106 " clip-rule="nonzero"/></clipPath><clipPath id="760b66ce50"><path d="M 180.597656 139.707031 L 219.050781 42.859375 L 277.578125 66.097656 L 239.125 162.945312 Z M 180.597656 139.707031 " clip-rule="nonzero"/></clipPath><clipPath id="07403337fc"><path d="M 180.597656 139.707031 L 219.050781 42.859375 L 277.578125 66.097656 L 239.125 162.945312 Z M 180.597656 139.707031 " clip-rule="nonzero"/></clipPath><clipPath id="f8d5831aad"><path d="M 180.597656 139.707031 L 219.050781 42.859375 L 277.578125 66.097656 L 239.125 162.945312 Z M 180.597656 139.707031 " clip-rule="nonzero"/></clipPath><clipPath id="31756e0750"><path d="M 226 56 L 254 56 L 254 118 L 226 118 Z M 226 56 " clip-rule="nonzero"/></clipPath><clipPath id="0a311d0e27"><path d="M 180.597656 139.707031 L 219.050781 42.859375 L 277.578125 66.097656 L 239.125 162.945312 Z M 180.597656 139.707031 " clip-rule="nonzero"/></clipPath><clipPath id="0d79b9f57a"><path d="M 180.597656 139.707031 L 219.050781 42.859375 L 277.578125 66.097656 L 239.125 162.945312 Z M 180.597656 139.707031 " clip-rule="nonzero"/></clipPath><clipPath id="42394535c2"><path d="M 180.597656 139.707031 L 219.050781 42.859375 L 277.578125 66.097656 L 239.125 162.945312 Z M 180.597656 139.707031 " clip-rule="nonzero"/></clipPath><clipPath id="808008a316"><path d="M 199 99 L 243 99 L 243 139 L 199 139 Z M 199 99 " clip-rule="nonzero"/></clipPath><clipPath id="b8fe18fc38"><path d="M 180.597656 139.707031 L 219.050781 42.859375 L 277.578125 66.097656 L 239.125 162.945312 Z M 180.597656 139.707031 " clip-rule="nonzero"/></clipPath><clipPath id="d35f919614"><path d="M 180.597656 139.707031 L 219.050781 42.859375 L 277.578125 66.097656 L 239.125 162.945312 Z M 180.597656 139.707031 " clip-rule="nonzero"/></clipPath><clipPath id="fde087b4c8"><path d="M 180.597656 139.707031 L 219.050781 42.859375 L 277.578125 66.097656 L 239.125 162.945312 Z M 180.597656 139.707031 " clip-rule="nonzero"/></clipPath><clipPath id="1f928f6741"><path d="M 199 98 L 243 98 L 243 139 L 199 139 Z M 199 98 " clip-rule="nonzero"/></clipPath><clipPath id="1339a7bf49"><path d="M 180.597656 139.707031 L 219.050781 42.859375 L 277.578125 66.097656 L 239.125 162.945312 Z M 180.597656 139.707031 " clip-rule="nonzero"/></clipPath><clipPath id="3b8bd60f45"><path d="M 180.597656 139.707031 L 219.050781 42.859375 L 277.578125 66.097656 L 239.125 162.945312 Z M 180.597656 139.707031 " clip-rule="nonzero"/></clipPath><clipPath id="217a9cf938"><path d="M 180.597656 139.707031 L 219.050781 42.859375 L 277.578125 66.097656 L 239.125 162.945312 Z M 180.597656 139.707031 " clip-rule="nonzero"/></clipPath><clipPath id="660bbd7023"><path d="M 218 116 L 224 116 L 224 122 L 218 122 Z M 218 116 " clip-rule="nonzero"/></clipPath><clipPath id="3e52078a62"><path d="M 180.597656 139.707031 L 219.050781 42.859375 L 277.578125 66.097656 L 239.125 162.945312 Z M 180.597656 139.707031 " clip-rule="nonzero"/></clipPath><clipPath id="5d350ec88f"><path d="M 180.597656 139.707031 L 219.050781 42.859375 L 277.578125 66.097656 L 239.125 162.945312 Z M 180.597656 139.707031 " clip-rule="nonzero"/></clipPath><clipPath id="d0719b7e23"><path d="M 180.597656 139.707031 L 219.050781 42.859375 L 277.578125 66.097656 L 239.125 162.945312 Z M 180.597656 139.707031 " clip-rule="nonzero"/></clipPath><clipPath id="31267a76ca"><path d="M 218 116 L 225 116 L 225 122 L 218 122 Z M 218 116 " clip-rule="nonzero"/></clipPath><clipPath id="7a7e800bd4"><path d="M 180.597656 139.707031 L 219.050781 42.859375 L 277.578125 66.097656 L 239.125 162.945312 Z M 180.597656 139.707031 " clip-rule="nonzero"/></clipPath><clipPath id="5d48ccd087"><path d="M 180.597656 139.707031 L 219.050781 42.859375 L 277.578125 66.097656 L 239.125 162.945312 Z M 180.597656 139.707031 " clip-rule="nonzero"/></clipPath><clipPath id="e73eb5b588"><path d="M 180.597656 139.707031 L 219.050781 42.859375 L 277.578125 66.097656 L 239.125 162.945312 Z M 180.597656 139.707031 " clip-rule="nonzero"/></clipPath><clipPath id="4b62ced88a"><path d="M 158 72 L 423.375 72 L 423.375 378 L 158 378 Z M 158 72 " clip-rule="nonzero"/></clipPath><clipPath id="5bc95d9ac0"><rect x="0" width="266" y="0" height="306"/></clipPath><clipPath id="b6143abe67"><rect x="0" width="424" y="0" height="393"/></clipPath></defs><g transform="matrix(1, 0, 0, 1, 104, 202)"><g clip-path="url(#b6143abe67)"><g clip-path="url(#de47d98bbe)"><g><g clip-path="url(#502ba1d3cb)"><g fill="#ffffff" fill-opacity="1"><g transform="translate(1.066865, 313.763449)"><g><path d="M 6.296875 -234.015625 L 6.296875 -249.328125 L 89.125 -249.328125 L 89.125 -234.015625 C 89.125 -230.273438 86.796875 -228.066406 82.140625 -227.390625 C 80.671875 -227.160156 77.953125 -226.59375 73.984375 -225.6875 C 70.015625 -224.78125 66.726562 -224.097656 64.125 -223.640625 L 127.890625 -65.140625 C 130.617188 -58.785156 133.398438 -49.710938 136.234375 -37.921875 C 139.179688 -50.734375 141.84375 -59.921875 144.21875 -65.484375 L 207.328125 -223.984375 C 196.097656 -226.023438 189.460938 -227.382812 187.421875 -228.0625 C 183.910156 -228.75 182.15625 -230.960938 182.15625 -234.703125 L 182.15625 -249.328125 L 264.640625 -248.984375 L 264.640625 -234.015625 C 264.640625 -230.503906 263.050781 -228.410156 259.875 -227.734375 L 242.359375 -223.640625 L 150.859375 0.6875 L 120.578125 0.6875 L 29.25 -223.640625 C 19.382812 -225.679688 13.488281 -227.046875 11.5625 -227.734375 C 8.050781 -228.410156 6.296875 -230.503906 6.296875 -234.015625 Z M 6.296875 -234.015625 "/></g></g></g></g></g></g><g clip-path="url(#e1b0e8ce75)"><g clip-path="url(#e843a579d3)"><g clip-path="url(#3057300d42)"><g clip-path="url(#a282dc3dd4)"><path stroke-linecap="square" transform="matrix(-0.122208, -0.273774, 0.245672, -0.185194, 70.845498, 61.53679)" fill-opacity="1" fill="#808080" fill-rule="nonzero" stroke-linejoin="round" d="M -433.274213 311.939239 C -468.215374 311.936961 -504.039122 343.359835 -513.257062 382.150421 C -522.485679 420.935696 -501.623287 452.381474 -466.663402 452.377165 C -431.72224 452.379443 -395.911797 420.934051 -386.683181 382.148775 C -377.473288 343.370087 -398.314328 311.93493 -433.274213 311.939239 Z M -433.104281 320.67353 C -423.310041 320.664234 -417.474911 329.481798 -420.057649 340.344853 C -422.651063 351.202598 -432.67103 360.003772 -442.457222 360.001172 C -452.243415 359.998571 -458.075917 351.198214 -455.501227 340.347056 C -452.918489 329.484001 -442.890474 320.67093 -433.104281 320.67353 Z M -477.778888 350.015033 C -467.992696 350.017634 -462.149518 358.823301 -464.734884 369.669149 C -467.317622 380.532204 -477.337589 389.333378 -487.123782 389.330778 C -496.909974 389.328177 -502.750524 380.539717 -500.167786 369.676662 C -497.585048 358.813607 -487.554405 350.017743 -477.778888 350.015033 Z M -408.374927 356.253049 C -398.588735 356.25565 -392.756233 365.056007 -395.330923 375.907165 C -397.913661 386.77022 -407.933628 395.571395 -417.719821 395.568794 C -427.506013 395.566193 -433.346563 386.777734 -430.763825 375.914678 C -428.181087 365.051623 -418.16112 356.250449 -408.374927 356.253049 Z M -479.317301 394.327091 C -469.531109 394.329692 -463.669208 403.128773 -466.251946 413.991828 C -468.84536 424.849573 -478.876002 433.645436 -488.662195 433.642836 C -498.456435 433.652132 -504.288937 424.851775 -501.706199 413.98872 C -499.123461 403.125665 -489.103494 394.324491 -479.317301 394.327091 Z M -439.170416 400.575997 C -429.376176 400.5667 -423.532998 409.372368 -426.107688 420.223526 C -428.690426 431.086581 -438.731745 439.877134 -448.525985 439.886431 C -458.312178 439.88383 -464.14468 431.083473 -461.561942 420.220418 C -458.987251 409.36926 -448.956609 400.573396 -439.170416 400.575997 Z M -439.170416 400.575997 " stroke="#000000" stroke-width="0.98" stroke-opacity="1" stroke-miterlimit="4"/></g></g></g></g><g clip-path="url(#02f0c61cbf)"><g clip-path="url(#991a8ac0be)"><g clip-path="url(#fb070bd252)"><g clip-path="url(#0461812b29)"><path fill="#000000" d="M 216.320312 107.847656 C 222.1875 105.8125 228.9375 108.617188 231.390625 114.117188 C 233.84375 119.613281 231.078125 125.722656 225.210938 127.761719 C 219.339844 129.796875 212.59375 126.992188 210.140625 121.496094 C 207.6875 115.996094 210.453125 109.886719 216.320312 107.847656 Z M 216.320312 107.847656 " fill-opacity="1" fill-rule="nonzero"/></g></g></g></g><g clip-path="url(#08338ae180)"><g clip-path="url(#760b66ce50)"><g clip-path="url(#07403337fc)"><g clip-path="url(#f8d5831aad)"><path stroke-linecap="square" transform="matrix(-0.122208, -0.273774, 0.284272, -0.0987164, 21.005618, 9.894204)" fill="none" stroke-linejoin="round" d="M -524.263478 461.689036 C -524.270697 482.325242 -540.553101 499.070301 -560.640483 499.06427 C -580.715512 499.063549 -596.998839 482.334604 -597.003973 461.693088 C -596.992463 441.044985 -580.714349 424.311823 -560.63932 424.312544 C -540.551938 424.318575 -524.268611 441.04752 -524.263478 461.689036 Z M -524.263478 461.689036 " stroke="#000000" stroke-width="2" stroke-opacity="1" stroke-miterlimit="4"/></g></g></g></g><g clip-path="url(#31756e0750)"><g clip-path="url(#0a311d0e27)"><g clip-path="url(#0d79b9f57a)"><g clip-path="url(#42394535c2)"><path fill="#000000" d="M 226.84375 108.746094 C 226.496094 98.675781 234.164062 93.058594 235.960938 88.445312 C 237.757812 83.835938 234.15625 77.992188 236.644531 72.390625 C 239.128906 66.789062 251.320312 63.726562 250.5 56.359375 C 251.34375 57.488281 252.917969 59.800781 253.984375 61.582031 C 252.214844 68.683594 243.765625 70.039062 241.78125 74.714844 C 239.800781 79.390625 242.882812 85.625 240.949219 90.5 C 237.6875 98.71875 228.070312 97.832031 232.554688 117.941406 C 229.71875 115.605469 229.605469 111.59375 226.84375 108.746094 Z M 226.84375 108.746094 " fill-opacity="1" fill-rule="nonzero"/></g></g></g></g><g clip-path="url(#808008a316)"><g clip-path="url(#b8fe18fc38)"><g clip-path="url(#d35f919614)"><g clip-path="url(#fde087b4c8)"><path fill="#808080" d="M 201.523438 127.371094 C 205.882812 137.128906 218.21875 141.195312 229.085938 136.445312 C 239.953125 131.695312 245.230469 119.929688 240.875 110.167969 C 236.519531 100.410156 224.175781 96.351562 213.3125 101.101562 C 202.445312 105.851562 197.167969 117.609375 201.523438 127.371094 Z M 203.691406 125.675781 C 202.472656 122.941406 203.953125 119.648438 206.996094 118.316406 C 210.039062 116.988281 213.492188 118.125 214.710938 120.855469 C 215.929688 123.589844 214.453125 126.882812 211.410156 128.210938 C 208.371094 129.539062 204.910156 128.40625 203.691406 125.675781 Z M 216.613281 132.605469 C 215.394531 129.871094 216.871094 126.582031 219.914062 125.25 C 222.957031 123.921875 226.410156 125.058594 227.628906 127.789062 C 228.847656 130.523438 227.371094 133.8125 224.328125 135.144531 C 221.285156 136.472656 217.832031 135.335938 216.613281 132.605469 Z M 209.527344 112.046875 C 208.304688 109.316406 209.78125 106.023438 212.824219 104.695312 C 215.867188 103.363281 219.320312 104.5 220.542969 107.234375 C 221.761719 109.964844 220.285156 113.257812 217.242188 114.589844 C 214.199219 115.917969 210.746094 114.78125 209.527344 112.046875 Z M 227.910156 124.664062 C 226.6875 121.933594 228.164062 118.636719 231.207031 117.304688 C 234.25 115.976562 237.703125 117.117188 238.925781 119.847656 C 240.144531 122.582031 238.667969 125.875 235.625 127.203125 C 232.582031 128.535156 229.128906 127.398438 227.910156 124.664062 Z M 224.46875 112.277344 C 223.246094 109.542969 224.722656 106.246094 227.765625 104.917969 C 230.808594 103.589844 234.261719 104.730469 235.484375 107.460938 C 236.703125 110.195312 235.226562 113.488281 232.183594 114.816406 C 229.140625 116.144531 225.6875 115.011719 224.46875 112.277344 Z M 224.46875 112.277344 " fill-opacity="1" fill-rule="nonzero"/></g></g></g></g><g clip-path="url(#1f928f6741)"><g clip-path="url(#1339a7bf49)"><g clip-path="url(#3b8bd60f45)"><g clip-path="url(#217a9cf938)"><path stroke-linecap="square" transform="matrix(-0.122208, -0.273774, 0.245672, -0.185194, 70.845498, 61.53679)" fill="none" stroke-linejoin="round" d="M -449.149881 308.494052 C -484.799254 308.505185 -521.327428 340.547564 -530.734402 380.102732 C -540.141375 419.6579 -518.858352 451.726327 -483.206352 451.732401 C -447.565027 451.733165 -411.042109 419.656371 -401.643183 380.1131 C -392.236209 340.557932 -413.497881 308.500127 -449.149881 308.494052 Z M -448.983068 317.401696 C -438.999129 317.407263 -433.04952 326.393076 -435.678243 337.471761 C -438.317642 348.545135 -448.538475 357.516694 -458.511739 357.516438 C -468.495679 357.510871 -474.453335 348.536954 -471.813936 337.46358 C -469.182585 326.402104 -458.956333 317.401439 -448.983068 317.401696 Z M -494.543754 347.335943 C -484.559814 347.34151 -478.612833 356.310116 -481.241556 367.3888 C -483.880955 378.462174 -494.101788 387.433734 -504.075052 387.433477 C -514.058992 387.42791 -520.005973 378.459304 -517.37725 367.38062 C -514.737851 356.307246 -504.517018 347.335686 -494.543754 347.335943 Z M -423.758516 353.704558 C -413.777204 353.692917 -407.819548 362.666834 -410.458947 373.740207 C -413.08767 384.818892 -423.308503 393.790452 -433.30049 393.796781 C -443.273755 393.796525 -449.231411 384.822608 -446.602688 373.743924 C -443.963289 362.67055 -433.742456 353.69899 -423.758516 353.704558 Z M -496.113855 392.538555 C -486.132543 392.526914 -480.164211 401.506141 -482.792934 412.584826 C -485.432333 423.658199 -495.663841 432.624449 -505.645153 432.636089 C -515.629093 432.630522 -521.58675 423.656605 -518.947351 412.583232 C -516.318627 401.504547 -506.097795 392.532987 -496.113855 392.538555 Z M -455.170887 398.897262 C -445.1789 398.890932 -439.210567 407.870159 -441.849966 418.943533 C -444.489365 430.016907 -454.720874 438.983156 -464.702186 438.994796 C -474.686126 438.989229 -480.643782 430.015313 -478.004383 418.941939 C -475.364984 407.868565 -465.154827 398.891695 -455.170887 398.897262 Z M -455.170887 398.897262 " stroke="#000000" stroke-width="1" stroke-opacity="1" stroke-miterlimit="4"/></g></g></g></g><g clip-path="url(#660bbd7023)"><g clip-path="url(#3e52078a62)"><g clip-path="url(#5d350ec88f)"><g clip-path="url(#d0719b7e23)"><path fill="#808080" d="M 220.128906 116.957031 C 221.578125 116.445312 223.207031 117.050781 223.765625 118.3125 C 224.328125 119.570312 223.613281 121.007812 222.164062 121.519531 C 220.71875 122.027344 219.089844 121.421875 218.527344 120.164062 C 217.964844 118.902344 218.683594 117.46875 220.128906 116.957031 Z M 220.128906 116.957031 " fill-opacity="1" fill-rule="nonzero"/></g></g></g></g><g clip-path="url(#31267a76ca)"><g clip-path="url(#7a7e800bd4)"><g clip-path="url(#5d48ccd087)"><g clip-path="url(#e73eb5b588)"><path stroke-linecap="square" transform="matrix(-0.122143, -0.273629, 0.335839, -0.118689, 58.475546, 29.602957)" fill="none" stroke-linejoin="round" d="M -456.079792 315.468125 C -456.081211 319.782833 -459.809613 323.277095 -464.415524 323.265224 C -469.013461 323.267885 -472.753626 319.779069 -472.752206 315.464361 C -472.742814 311.164183 -469.014413 307.669922 -464.416475 307.667261 C -459.806207 307.669085 -456.08273 311.163463 -456.079792 315.468125 Z M -456.079792 315.468125 " stroke="#000000" stroke-width="0.919" stroke-opacity="1" stroke-miterlimit="4"/></g></g></g></g><g clip-path="url(#4b62ced88a)"><g transform="matrix(1, 0, 0, 1, 158, 72)"><g clip-path="url(#5bc95d9ac0)"><g fill="#ffffff" fill-opacity="1"><g transform="translate(0.594194, 244.822592)"><g><path d="M 6.765625 0 L 6.765625 -10.875 C 6.765625 -13.164062 7.957031 -14.625 10.34375 -15.25 L 21.21875 -18.421875 L 91.75 -194.359375 L 118.390625 -194.359375 L 188.65625 -18.421875 L 199.53125 -15.25 C 201.914062 -14.625 203.109375 -13.164062 203.109375 -10.875 L 203.109375 0 L 147.15625 0 L 147.15625 -10.875 C 147.15625 -13.257812 148.4375 -14.71875 151 -15.25 L 162.140625 -18.421875 L 146.890625 -57.53125 L 62.96875 -57.53125 L 47.734375 -18.421875 L 58.859375 -15.25 C 61.242188 -14.71875 62.4375 -13.257812 62.4375 -10.875 L 62.4375 0 Z M 70.265625 -76.625 L 139.609375 -76.625 L 110.828125 -151.53125 C 108.617188 -156.570312 106.632812 -162.628906 104.875 -169.703125 C 102.65625 -161.390625 100.84375 -155.242188 99.4375 -151.265625 Z M 70.265625 -76.625 "/></g></g></g></g></g></g></g></g></svg>